<svg viewBox="0 0 49.92 19.68" xmlns="http://www.w3.org/2000/svg"><path d="m4.2 16.94c-.19-.09-.73-.37-.48-.6s.46.15.53.54c0 .03-.02.12-.05.06z" fill="#7bd0f4"/><path d="m4.73 17.29c.14-.17.49-.61.19-.74s-.36.31-.28.7c.01.03.05.07.09.04z" fill="#7bd0f4"/><path d="m11.27 17.56a.16.16 0 1 0 .16-.16.16.16 0 0 0 -.16.16z" fill="#7bd0f4"/><path d="m13.32 18.8a.41.41 0 0 0 0-.65.13.13 0 0 1 0-.2.6.6 0 0 0 .29-.42.46.46 0 0 0 -.43-.46c-.39-.07-.75.28-1 .57a.43.43 0 0 0 0 .53c.21.4.69.96 1.14.63z" fill="#f9c800"/><path d="m17.08 17.46a1.06 1.06 0 0 0 -.44-.47.2.2 0 0 1 -.1-.12 2.7 2.7 0 0 0 -.3-.55.19.19 0 0 1 0-.12 3 3 0 0 0 -.67-2c-1.31-1.73-4.71-1.95-6.36-.7a4.64 4.64 0 0 0 -1.71 2.91 3.06 3.06 0 0 1 -.9 1.8.9.9 0 0 1 -1.47-.34c0-.16-.09-.13-.17-.1a.86.86 0 0 1 -.44 0 .1.1 0 0 0 -.1.1 1.69 1.69 0 0 0 1.7 1.36c1.73 0 2.37-1.71 2.62-2.21 0-.07.07-.06.1 0a.7.7 0 0 1 0 .79s-.07.06 0 .12a1.69 1.69 0 0 1 .34.4l.41 1.29s0 .05 0 .05h1.18s0 0 0 0a12.93 12.93 0 0 1 -.22-1.41s0-.06.06-.07a.54.54 0 0 0 .41-.26.05.05 0 0 0 0-.08 2.44 2.44 0 0 1 -.69-.28 1.33 1.33 0 0 1 -.79-1.08 1.12 1.12 0 0 1 1.1-1.27 1.45 1.45 0 0 1 .69.19s0 .08 0 .08l-.17.36s0 .05-.1 0a.6.6 0 0 0 -.75 0 .54.54 0 0 0 -.16.61.79.79 0 0 0 1.08.23 2.25 2.25 0 0 1 2.85.6c.05.08.1.15.14.23s0 0 0 0a.58.58 0 0 0 .28-.19.05.05 0 0 0 0-.05 1.92 1.92 0 0 1 0-.22.45.45 0 0 1 0-.3.17.17 0 0 1 .23-.05.18.18 0 0 1 .08.18s0 0 0 0a.15.15 0 0 1 .19 0 .16.16 0 0 1 .05.23.44.44 0 0 1 -.26.16l-.22.06a3 3 0 0 1 -.27.26.06.06 0 0 0 0 .06 2.69 2.69 0 0 1 -.08 1.89v.05h1.07s.05 0 .06 0a17.69 17.69 0 0 0 .77-3.07s0-.05 0 0a2.68 2.68 0 0 1 .21.37.28.28 0 0 1 0 .16.86.86 0 0 0 0 .67.93.93 0 0 0 .52.46 1 1 0 0 0 .23-.73zm-7.95-1.31c-.18.08-.29 0-.36-.17a.27.27 0 0 1 .12-.38c.17-.07.29 0 .36.18s.05.3-.12.37zm3.61-.15a1.24 1.24 0 0 1 -.72-.19.63.63 0 0 1 -.27-.57v-1.21a.56.56 0 0 1 .37-.47 3.18 3.18 0 0 1 .78-.15 1.24 1.24 0 0 1 1 .18.64.64 0 0 1 .21.56c-.11.94-.59 1.73-1.37 1.85z" fill="#7bd0f4"/><g fill="#f0c200"><path d="m6.31.82v2a4.26 4.26 0 0 0 -2.77-1.14c-1 0-1.46.47-1.46 1.12s.21 1 1.73 1.84c2.06 1.14 2.94 1.92 2.94 3.57s-1.4 3-3.45 3a6.16 6.16 0 0 1 -3.24-1v-2.21a4.34 4.34 0 0 0 3.06 1.51c1 0 1.52-.55 1.52-1.23s-.21-1.09-2.19-2.17c-1.45-.8-2.45-1.64-2.45-3.24s1.33-2.87 3.44-2.87a5.3 5.3 0 0 1 2.87.82z"/><path d="m10.43.14v10.92h-2.11v-10.92z"/><path d="m14.43.14 3.57 4.36 3.49-4.36h1.94v10.92h-2.11v-7.79l-3.22 4h-.29l-3.25-4v7.79h-2.08v-10.92z"/><path d="m29.41.14c2.35 0 3.76 1.19 3.76 3.21s-1.36 3.18-3.84 3.18h-1.73v4.53h-2.11v-10.92zm-1.81 4.77h1.4c1.55 0 2-.62 2-1.58s-.52-1.59-2-1.59h-1.4z"/><path d="m36.61.14v9.11h4.93v1.81h-7.06v-10.92z"/><path d="m49.78.14v1.65h-4.68v2.9h4.5v1.65h-4.5v3.06h4.82v1.66h-6.92v-10.92z"/></g><path d="m20.4 13.46v2.38h3v-2.38h1.55v6.14h-1.58v-2.47h-3v2.47h-1.52v-6.14z" fill="#f9d716"/><path d="m33 16.53a3.13 3.13 0 0 1 -3.42 3.15 3.16 3.16 0 1 1 0-6.3 3.13 3.13 0 0 1 3.42 3.15zm-5.23 0a1.82 1.82 0 1 0 1.81-1.81 1.71 1.71 0 0 0 -1.85 1.82z" fill="#f9d716"/><path d="m35.73 13.46v6.14h-1.55v-6.14z" fill="#f9d716"/><path d="m38.77 13.46v2.83l2.32-2.83h1.73l-2.39 2.88 2.84 3.26h-1.93l-2.57-3v3h-1.55v-6.14z" fill="#f9d716"/><path d="m45.38 13.46v3.33a1.39 1.39 0 0 0 1.51 1.58c.94 0 1.48-.49 1.48-1.56v-3.35h1.55v3.39c0 1.83-1.12 2.83-3 2.83s-3.06-1.06-3.06-2.81v-3.41z" fill="#f9d716"/></svg>